<svg id="Layer_1" data-name="Layer 1" xmlns="http://www.w3.org/2000/svg" viewBox="0 0 512 512"><defs><style>.cls-1{fill:#141f38;}</style></defs><title>satellite-antenna-glyph</title><path class="cls-1" d="M352.64,349.59a28.72,28.72,0,0,0-7.68-27l-78.1-78.1,24.67-74.17a32.18,32.18,0,0,0,3.86.39,32.82,32.82,0,1,0-32.82-32.82,32.14,32.14,0,0,0,.4,4L189.1,166.69,123.82,101.4a28.73,28.73,0,0,0-27-7.68,28.39,28.39,0,0,0-20.58,18.69,203.66,203.66,0,0,0-9.72,83.51c4.54,50.78,28.7,96.77,64.64,130.16a38.66,38.66,0,0,0-2.76,52.59,35.2,35.2,0,0,0-2.24,4.62L94.7,463.52A35.53,35.53,0,0,0,127.78,512h86.39a35.53,35.53,0,0,0,29.3-55.61l-54.34-79.3a38.68,38.68,0,0,0,5.65-10.61,197.16,197.16,0,0,0,55.66,13.4q9.44.84,18.79.84a202.37,202.37,0,0,0,64.72-10.56A28.39,28.39,0,0,0,352.64,349.59ZM199.47,177.05l67.66-22.8c.32.55.56,1.14.91,1.67l-44.85,44.85Zm33,33,44.85-44.85c.55.36,1.17.62,1.75.95l-22.59,67.92ZM337.41,68.42A6.56,6.56,0,1,1,343,56.56a98.72,98.72,0,0,1,46.77,46.77A6.56,6.56,0,1,1,377.95,109,85.54,85.54,0,0,0,337.41,68.42Zm1-55.54A6.56,6.56,0,1,1,342,.24,151.71,151.71,0,0,1,446.11,104.35a6.56,6.56,0,1,1-12.63,3.57A138.52,138.52,0,0,0,338.44,12.88Z"/></svg>